HIERARCHY
ROOT Hips
{
  OFFSET 5.72205e-005 65.662 3.42586
  CHANNELS 6 Xposition Yposition Zposition Zrotation Xrotation Yrotation
  JOINT Chest
  {
    OFFSET 0 8.7983 -4.7612
    CHANNELS 3 Zrotation Xrotation Yrotation
    JOINT Chest2
    {
      OFFSET 0 8.0291 0.4195
      CHANNELS 3 Zrotation Xrotation Yrotation
      JOINT Chest3
      {
        OFFSET 0 9.9351 -2.2114
        CHANNELS 3 Zrotation Xrotation Yrotation
        JOINT Neck
        {
          OFFSET 0 22.3885 -0.4656
          CHANNELS 3 Zrotation Xrotation Yrotation
          JOINT Head
          {
            OFFSET -0.0001 12.643 3.4389
            CHANNELS 3 Zrotation Xrotation Yrotation
            End Site
            {
              OFFSET 0.0001 17.6655 0.5274
            }
          }
        }
        JOINT LeftCollar
        {
          OFFSET 2.2603 21.606 7.4023
          CHANNELS 3 Zrotation Xrotation Yrotation
          JOINT LeftShoulder
          {
            OFFSET 13.5163 -1.1332 -5.0146
            CHANNELS 3 Zrotation Xrotation Yrotation
            JOINT LeftElbow
            {
              OFFSET -0.0995 -28.05 -0.2431
              CHANNELS 3 Zrotation Xrotation Yrotation
              JOINT LeftWrist
              {
                OFFSET 0.0679 -23.3996 -0.1402
                CHANNELS 3 Zrotation Xrotation Yrotation
                JOINT LeftFinger1
                {
                  OFFSET 0.7932 -9.069 2.5189
                  CHANNELS 3 Zrotation Xrotation Yrotation
                  JOINT LeftFinger11
                  {
                    OFFSET -0.8272 -3.3923 0.5977
                    CHANNELS 3 Zrotation Xrotation Yrotation
                    JOINT LeftFinger12
                    {
                      OFFSET -0.5649 -2.3158 0.4082
                      CHANNELS 3 Zrotation Xrotation Yrotation
                      End Site
                      {
                        OFFSET -0.4919 -1.6479 0.2673
                      }
                    }
                  }
                }
                JOINT LeftFinger2
                {
                  OFFSET 0.9159 -9.2044 0.2193
                  CHANNELS 3 Zrotation Xrotation Yrotation
                  JOINT LeftFinger21
                  {
                    OFFSET 0.0117 -4.1944 -0.0248
                    CHANNELS 3 Zrotation Xrotation Yrotation
                    JOINT LeftFinger22
                    {
                      OFFSET 0.0071 -2.3249 -0.0142
                      CHANNELS 3 Zrotation Xrotation Yrotation
                      End Site
                      {
                        OFFSET -0.1475 -2.0882 0.0028
                      }
                    }
                  }
                }
                JOINT LeftFinger3
                {
                  OFFSET 0.6113 -8.7231 -2.0637
                  CHANNELS 3 Zrotation Xrotation Yrotation
                  JOINT LeftFinger31
                  {
                    OFFSET -0.1927 -3.8059 -0.2383
                    CHANNELS 3 Zrotation Xrotation Yrotation
                    JOINT LeftFinger32
                    {
                      OFFSET -0.1091 -2.1688 -0.1362
                      CHANNELS 3 Zrotation Xrotation Yrotation
                      End Site
                      {
                        OFFSET -0.2358 -1.9176 -0.0906
                      }
                    }
                  }
                }
                JOINT LeftFinger4
                {
                  OFFSET -0.6151 -8.0947 -3.5641
                  CHANNELS 3 Zrotation Xrotation Yrotation
                  JOINT LeftFinger41
                  {
                    OFFSET -0.4882 -2.341 -0.6462
                    CHANNELS 3 Zrotation Xrotation Yrotation
                    JOINT LeftFinger42
                    {
                      OFFSET -0.3575 -1.7167 -0.4742
                      CHANNELS 3 Zrotation Xrotation Yrotation
                      End Site
                      {
                        OFFSET -0.4187 -1.5237 -0.3496
                      }
                    }
                  }
                }
                JOINT LeftFinger0
                {
                  OFFSET -1.42 -1.8761 1.4223
                  CHANNELS 3 Zrotation Xrotation Yrotation
                  JOINT LeftFinger01
                  {
                    OFFSET -1.1471 -3.4929 2.6334
                    CHANNELS 3 Zrotation Xrotation Yrotation
                    JOINT LeftFinger02
                    {
                      OFFSET -0.823 -2.3 1.6571
                      CHANNELS 3 Zrotation Xrotation Yrotation
                      End Site
                      {
                        OFFSET -0.5822 -1.6914 1.1582
                      }
                    }
                  }
                }
              }
            }
          }
        }
        JOINT RightCollar
        {
          OFFSET -2.2603 21.606 7.4023
          CHANNELS 3 Zrotation Xrotation Yrotation
          JOINT RightShoulder
          {
            OFFSET -13.5187 -1.1334 -5.0155
            CHANNELS 3 Zrotation Xrotation Yrotation
            JOINT RightElbow
            {
              OFFSET 0.0994 -28.0499 -0.2431
              CHANNELS 3 Zrotation Xrotation Yrotation
              JOINT RightWrist
              {
                OFFSET -0.0679 -23.3996 -0.1402
                CHANNELS 3 Zrotation Xrotation Yrotation
                JOINT RightFinger1
                {
                  OFFSET -0.7932 -9.0691 2.5189
                  CHANNELS 3 Zrotation Xrotation Yrotation
                  JOINT RightFinger11
                  {
                    OFFSET 0.8272 -3.3923 0.5977
                    CHANNELS 3 Zrotation Xrotation Yrotation
                    JOINT RightFinger12
                    {
                      OFFSET 0.565 -2.3158 0.4082
                      CHANNELS 3 Zrotation Xrotation Yrotation
                      End Site
                      {
                        OFFSET 0.4919 -1.6479 0.2673
                      }
                    }
                  }
                }
                JOINT RightFinger2
                {
                  OFFSET -0.916 -9.2044 0.2193
                  CHANNELS 3 Zrotation Xrotation Yrotation
                  JOINT RightFinger21
                  {
                    OFFSET -0.0117 -4.1944 -0.0248
                    CHANNELS 3 Zrotation Xrotation Yrotation
                    JOINT RightFinger22
                    {
                      OFFSET -0.0071 -2.3249 -0.0142
                      CHANNELS 3 Zrotation Xrotation Yrotation
                      End Site
                      {
                        OFFSET 0.1475 -2.0882 0.0028
                      }
                    }
                  }
                }
                JOINT RightFinger3
                {
                  OFFSET -0.6113 -8.7231 -2.0637
                  CHANNELS 3 Zrotation Xrotation Yrotation
                  JOINT RightFinger31
                  {
                    OFFSET 0.1927 -3.8059 -0.2383
                    CHANNELS 3 Zrotation Xrotation Yrotation
                    JOINT RightFinger32
                    {
                      OFFSET 0.1091 -2.1688 -0.1362
                      CHANNELS 3 Zrotation Xrotation Yrotation
                      End Site
                      {
                        OFFSET 0.2358 -1.9176 -0.0906
                      }
                    }
                  }
                }
                JOINT RightFinger4
                {
                  OFFSET 0.6151 -8.0947 -3.564
                  CHANNELS 3 Zrotation Xrotation Yrotation
                  JOINT RightFinger41
                  {
                    OFFSET 0.4882 -2.341 -0.6462
                    CHANNELS 3 Zrotation Xrotation Yrotation
                    JOINT RightFinger42
                    {
                      OFFSET 0.3574 -1.7166 -0.4742
                      CHANNELS 3 Zrotation Xrotation Yrotation
                      End Site
                      {
                        OFFSET 0.4187 -1.5237 -0.3496
                      }
                    }
                  }
                }
                JOINT RightFinger0
                {
                  OFFSET 1.4199 -1.8761 1.4221
                  CHANNELS 3 Zrotation Xrotation Yrotation
                  JOINT RightFinger01
                  {
                    OFFSET 1.1472 -3.4929 2.6336
                    CHANNELS 3 Zrotation Xrotation Yrotation
                    JOINT RightFinger02
                    {
                      OFFSET 0.8229 -2.3 1.6571
                      CHANNELS 3 Zrotation Xrotation Yrotation
                      End Site
                      {
                        OFFSET 0.5822 -1.6914 1.1582
                      }
                    }
                  }
                }
              }
            }
          }
        }
      }
    }
  }
  JOINT RightHip
  {
    OFFSET -9.412 3.9771 -0.7758
    CHANNELS 3 Zrotation Xrotation Yrotation
    JOINT RightKnee
    {
      OFFSET -0.7531 -40.938 0
      CHANNELS 3 Zrotation Xrotation Yrotation
      JOINT RightAnkle
      {
        OFFSET 0 -40.1986 0
        CHANNELS 3 Zrotation Xrotation Yrotation
        JOINT RightToe
        {
          OFFSET 0 -4.4182 9.239
          CHANNELS 3 Zrotation Xrotation Yrotation
          End Site
          {
            OFFSET 0 0 6.1981
          }
        }
      }
    }
  }
  JOINT LeftHip
  {
    OFFSET 9.4119 3.9773 -0.7758
    CHANNELS 3 Zrotation Xrotation Yrotation
    JOINT LeftKnee
    {
      OFFSET 0.7532 -40.9383 0
      CHANNELS 3 Zrotation Xrotation Yrotation
      JOINT LeftAnkle
      {
        OFFSET 0 -40.1986 0
        CHANNELS 3 Zrotation Xrotation Yrotation
        JOINT LeftToe
        {
          OFFSET 0 -4.4182 9.239
          CHANNELS 3 Zrotation Xrotation Yrotation
          End Site
          {
            OFFSET 0 0 6.1981
          }
        }
      }
    }
  }
}
MOTION
Frames:	5
Frame Time:	0.0333333
1.49443 64.4965 -18.8693 1.81713e-007 10.9226 2.9551e-008 -0.212223 3.19378 -0.387291 -0.403724 6.38889 -0.764497 -0.403724 6.38888 -0.764497 6.48037e-007 12.0907 1.63412e-006 1.91465e-007 8.46101 -9.25792e-007 -9.63397 5.11589 -30.3156 33.2668 -3.85047 25.2497 -13.5858 -41.0397 -13.7847 12.4058 0.236451 5.81442 -5.56597e-015 3.18055e-015 -0 -3.18055e-015 6.36111e-015 -1.59028e-015 8.9668e-007 2.44166e-007 1.41724e-006 -5.56597e-015 3.18055e-015 -0 -0.0128202 0.00233154 8.48728e-005 -2.38542e-015 -6.36111e-015 -0 -5.56597e-015 3.18055e-015 -0 -0.0160234 0.00298875 0.00085315 1.76459e-007 -1.21554e-006 1.82516e-006 -5.56597e-015 3.18055e-015 -0 -0.0125484 0.00311839 0.00282085 -2.70369e-006 -1.23895e-006 3.45669e-006 -5.56597e-015 3.18055e-015 -0 -3.18055e-015 6.36111e-015 -1.59028e-015 8.9668e-007 2.44166e-007 1.41724e-006 8.49059 4.94391 24.6951 -32.5672 -5.51241 -20.7454 13.0656 -41.2935 13.0329 -12.2707 0.387488 -6.07848 -1.1117e-005 -1.12549e-005 2.88013e-006 -2.38542e-015 3.18055e-015 7.95139e-016 -5.42064e-006 5.79617e-006 -2.13624e-006 -1.1117e-005 -1.12549e-005 2.88013e-006 0.0129703 0.00233046 -8.93873e-005 -9.75633e-006 -5.76301e-006 3.22836e-006 -1.1117e-005 -1.12549e-005 2.88013e-006 0.0163485 0.00304167 -0.000879461 -6.74993e-006 3.86247e-006 2.62304e-007 -1.1117e-005 -1.12549e-005 2.88013e-006 0.0146332 0.00369691 -0.00327626 -2.99337e-006 5.26355e-006 -4.37131e-006 -1.1117e-005 -1.12549e-005 2.88013e-006 -2.38542e-015 3.18055e-015 7.95139e-016 -5.42064e-006 5.79617e-006 -2.13624e-006 -2.4125 -13.1029 -3.51395 -0.00254754 32.7457 0.498972 8.72344 -16.0841 -13.055 2.12235e-007 8.47027e-008 1.72544e-006 6.22546 -13.0719 8.1637 -0.486894 32.626 -0.170658 -10.9433 -15.4172 7.33745 -4.12572e-007 1.49783e-007 -1.08033e-007 
1.49437 64.5196 -18.5886 -8.95215e-008 10.3457 -1.35697e-007 -0.213168 3.40848 -0.387082 -0.404292 6.81831 -0.763465 -0.404292 6.81831 -0.763466 2.18653e-006 12.1503 5.33618e-006 -1.01716e-007 8.50274 -1.50243e-007 -9.63944 4.76382 -30.5329 33.3807 -3.83194 25.2696 -13.5857 -41.0399 -13.7848 12.4058 0.23642 5.81442 -8.95697e-007 1.05606e-006 -1.4168e-006 1.59028e-015 1.59028e-014 -0 3.86564e-007 3.05531e-006 -9.90619e-007 -8.95697e-007 1.05606e-006 -1.4168e-006 -0.0128323 0.00233873 9.02153e-005 -7.95139e-016 0 -4.77083e-015 -8.95697e-007 1.05606e-006 -1.4168e-006 -0.0160122 0.0029875 0.000854181 7.95139e-016 6.36111e-015 1.59028e-015 -8.95697e-007 1.05606e-006 -1.4168e-006 -0.0126092 0.00312779 0.00283305 -5.764e-006 1.81115e-006 3.25694e-006 -8.95697e-007 1.05606e-006 -1.4168e-006 1.59028e-015 1.59028e-014 -0 3.86564e-007 3.05531e-006 -9.90619e-007 8.51022 4.5914 24.9184 -32.6792 -5.50285 -20.7719 13.0656 -41.2935 13.0329 -12.2707 0.387457 -6.07849 3.97569e-015 0 3.97569e-015 -4.27344e-007 -2.75986e-006 -7.3035e-007 -4.77083e-015 3.18055e-015 -4.77083e-015 3.97569e-015 0 3.97569e-015 0.0129561 0.00231037 -8.6346e-005 9.41384e-006 5.20289e-006 -2.33847e-006 3.97569e-015 0 3.97569e-015 0.016337 0.00303104 -0.000873412 3.18055e-015 0 1.59028e-015 3.97569e-015 0 3.97569e-015 0.0145783 0.00367818 -0.00326176 -1.59028e-015 -6.36111e-015 3.97569e-015 3.97569e-015 0 3.97569e-015 -4.27344e-007 -2.75986e-006 -7.3035e-007 -4.77083e-015 3.18055e-015 -4.77083e-015 -2.43827 -12.1666 -3.49764 0.0960061 32.3758 0.453244 8.71907 -16.0731 -13.0492 -0 -6.36111e-015 -0 6.22891 -12.137 8.1271 -0.574608 32.2578 -0.131987 -10.9392 -15.4065 7.33178 4.12586e-007 -1.25704e-007 1.07975e-007 
1.49431 64.5436 -18.3082 2.8363e-008 9.76888 3.24958e-007 -0.21409 3.62301 -0.386835 -0.404827 7.24736 -0.762365 -0.404828 7.24739 -0.762368 -2.3559e-006 12.21 -7.2244e-006 -6.90045e-007 8.54447 2.69399e-007 -9.64626 4.41194 -30.7502 33.4948 -3.81352 25.2894 -13.5857 -41.0399 -13.7848 12.4058 0.236453 5.81442 -7.95139e-016 0 -1.59028e-015 -2.38542e-015 0 1.59028e-015 -2.38542e-015 -3.18055e-015 -4.77083e-015 -7.95139e-016 0 -1.59028e-015 -0.012841 0.00232824 8.07996e-005 0 0 -1.59028e-015 -7.95139e-016 0 -1.59028e-015 -0.0160615 0.00299722 0.000854525 7.95139e-016 -3.18055e-015 -0 -7.95139e-016 0 -1.59028e-015 -0.0125666 0.00312395 0.00282482 -1.59028e-015 -6.36111e-015 -4.77083e-015 -7.95139e-016 0 -1.59028e-015 -2.38542e-015 0 1.59028e-015 -2.38542e-015 -3.18055e-015 -4.77083e-015 8.53121 4.23912 25.1417 -32.7911 -5.49321 -20.7984 13.0656 -41.2935 13.0329 -12.2707 0.387462 -6.07849 -1.43857e-008 2.88414e-006 -4.20704e-006 1.59028e-015 -3.18055e-015 7.95139e-016 8.92803e-007 -4.95603e-007 -3.88174e-006 -1.43857e-008 2.88414e-006 -4.20704e-006 0.0129675 0.00231063 -8.41058e-005 -8.53804e-007 2.22639e-014 -1.46041e-006 -1.43857e-008 2.88414e-006 -4.20704e-006 0.0163073 0.00302842 -0.000872938 -1.59028e-015 0 -3.18055e-015 -1.43857e-008 2.88414e-006 -4.20704e-006 0.0145812 0.00367657 -0.00326489 -3.97569e-015 -6.36111e-015 4.77083e-015 -1.43857e-008 2.88414e-006 -4.20704e-006 1.59028e-015 -3.18055e-015 7.95139e-016 8.92803e-007 -4.95603e-007 -3.88174e-006 -2.46369 -11.231 -3.48094 0.193144 32.0063 0.408778 8.7149 -16.0623 -13.0433 7.95139e-016 -1.59028e-015 -3.18055e-015 6.2322 -11.2033 8.0905 -0.660541 31.8904 -0.0944818 -10.9355 -15.3959 7.32615 -5.29669e-031 -4.77083e-015 -6.36111e-015 
1.49423 64.5684 -18.0279 -1.12442e-008 9.19215 1.3746e-008 -0.214994 3.83734 -0.386555 -0.405337 7.67604 -0.761211 -0.405337 7.67604 -0.761213 -3.13898e-006 12.2696 -8.33584e-006 1.83292e-007 8.58617 -6.28066e-008 -9.65441 4.06002 -30.9674 33.6091 -3.79513 25.3093 -13.5858 -41.0397 -13.7847 12.4058 0.236424 5.81441 -7.94503e-031 9.54166e-015 4.77083e-015 3.53113e-031 6.36111e-015 -3.18055e-015 7.95139e-016 9.54166e-015 1.59028e-015 -7.94503e-031 9.54166e-015 4.77083e-015 -0.012814 0.00232856 8.51231e-005 1.59028e-015 3.18055e-015 -3.18055e-015 -7.94503e-031 9.54166e-015 4.77083e-015 -0.0160282 0.00299577 0.000857305 -4.56524e-006 5.85728e-006 3.82286e-006 -7.94503e-031 9.54166e-015 4.77083e-015 -0.012578 0.00312255 0.00282241 0 0 -9.54166e-015 -7.94503e-031 9.54166e-015 4.77083e-015 3.53113e-031 6.36111e-015 -3.18055e-015 7.95139e-016 9.54166e-015 1.59028e-015 8.55358 3.88685 25.365 -32.9033 -5.4836 -20.8249 13.0657 -41.2934 13.0328 -12.2708 0.387472 -6.07846 -2.38542e-015 3.18055e-015 7.95139e-016 2.43831e-006 -2.7947e-007 -2.22481e-006 1.24852e-006 3.83743e-007 -2.52294e-006 -2.38542e-015 3.18055e-015 7.95139e-016 0.0129293 0.00232097 -9.09343e-005 1.62047e-006 -1.56692e-006 1.02819e-006 -2.38542e-015 3.18055e-015 7.95139e-016 0.0163213 0.00303661 -0.000879421 4.77083e-015 -3.18055e-015 5.56597e-015 -2.38542e-015 3.18055e-015 7.95139e-016 0.0146116 0.00368541 -0.00327047 7.95139e-016 -3.18055e-015 1.59028e-015 -2.38542e-015 3.18055e-015 7.95139e-016 2.43831e-006 -2.7947e-007 -2.22481e-006 1.24852e-006 3.83743e-007 -2.52294e-006 -2.48871 -10.2965 -3.46381 0.288734 31.6374 0.365484 8.71101 -16.0513 -13.0375 1.59028e-015 1.59028e-015 -3.18055e-015 6.23548 -10.2706 8.05397 -0.744844 31.5235 -0.0582096 -10.9321 -15.3853 7.32055 -1.04086e-006 5.29506e-006 2.51054e-006 
1.49415 64.5939 -17.7479 -1.14563e-007 8.61554 2.15298e-008 -0.215878 4.05141 -0.386244 -0.405819 8.10414 -0.76 -0.40582 8.10416 -0.760001 -7.85616e-009 12.3291 -2.6294e-007 9.26135e-008 8.6279 -5.40831e-007 -9.66387 3.70808 -31.1845 33.723 -3.77649 25.329 -13.5857 -41.0399 -13.7848 12.4058 0.236439 5.81441 -1.71101e-007 -8.18593e-008 -1.82033e-006 -1.59028e-015 -6.36111e-015 1.59028e-015 2.44058e-006 1.3086e-006 -2.3276e-006 -1.71101e-007 -8.18593e-008 -1.82033e-006 -0.0128118 0.00232339 8.12649e-005 -1.59028e-015 -6.36111e-015 -1.59028e-015 -1.71101e-007 -8.18593e-008 -1.82033e-006 -0.0160812 0.00300002 0.000863237 -5.20281e-007 3.10625e-007 -2.4282e-006 -1.71101e-007 -8.18593e-008 -1.82033e-006 -0.0125963 0.00312505 0.00283434 -3.97569e-015 0 -1.59028e-015 -1.71101e-007 -8.18593e-008 -1.82033e-006 -1.59028e-015 -6.36111e-015 1.59028e-015 2.44058e-006 1.3086e-006 -2.3276e-006 8.57729 3.53464 25.5884 -33.0151 -5.47378 -20.8514 13.0657 -41.2935 13.0329 -12.2708 0.387499 -6.07848 3.93675e-006 3.95549e-006 -5.30335e-006 3.97569e-015 6.36111e-015 -3.18055e-015 3.18055e-015 -3.18055e-015 -7.15625e-015 3.93675e-006 3.95549e-006 -5.30335e-006 0.012981 0.00232642 -8.98182e-005 4.77083e-015 1.44318e-006 -5.56597e-015 3.93675e-006 3.95549e-006 -5.30335e-006 0.0163415 0.00303395 -0.000874918 -5.56597e-015 9.54166e-015 -7.95139e-016 3.93675e-006 3.95549e-006 -5.30335e-006 0.0145493 0.00366602 -0.00325468 -2.01003e-006 5.06496e-006 -1.23289e-006 3.93675e-006 3.95549e-006 -5.30335e-006 3.97569e-015 6.36111e-015 -3.18055e-015 3.18055e-015 -3.18055e-015 -7.15625e-015 -2.51331 -9.36329 -3.44631 0.38272 31.2692 0.323426 8.70743 -16.0403 -13.0318 -8.07455e-007 5.62942e-007 3.10998e-006 6.23877 -9.33702 8.01751 -0.827823 31.1553 -0.0231498 -10.9292 -15.3748 7.31499 1.04438e-006 1.48786e-006 -9.09577e-007 
